<?xml version="1.0" encoding="utf-8"?>
<!-- Generator: Adobe Illustrator 16.2.0, SVG Export Plug-In . SVG Version: 6.00 Build 0)  -->
<!DOCTYPE svg PUBLIC "-//W3C//DTD SVG 1.1//EN" "http://www.w3.org/Graphics/SVG/1.1/DTD/svg11.dtd">
<svg version="1.1" id="Your_Design" xmlns="http://www.w3.org/2000/svg" xmlns:xlink="http://www.w3.org/1999/xlink" x="0px"
	 y="0px" width="2304px" height="792px" viewBox="0 0 2304 792" xml:space="preserve">
	<style type="text/css">
		.primary { fill: #FFF5B7; }
		.secondary { fill: #FFF5B7; }
	</style>
<g>
	<g>
		<g class="secondary">
			<path d="M516.896,414.127c-18.418-27.757-54.27-31.536-80.488-9.105c-25.973,22.596-28.906,59.669-4.695,81.422
				c24.051,21.657,63.215,25.739,83.568,9.407C535.557,479.351,535.25,441.884,516.896,414.127L516.896,414.127z"/>
			<path d="M532.931,339.884c15.195-20.125,16.504-57.591,3.939-81.491c-12.721-23.973-39.631-25.899-60.058-5.473
				c-20.354,20.427-22.902,56.352-5.244,80.104C489.373,356.687,517.597,360.16,532.931,339.884L532.931,339.884z"/>
			<path d="M430.784,357.922c-12.025-15.036-33.761-16.88-48.567-4.164c-14.799,12.643-16.501,34.617-3.474,48.714
				c12.877,14.116,35.161,15.961,49.035,4.26C441.734,394.932,442.888,372.958,430.784,357.922L430.784,357.922z"/>
			<path d="M442.74,317.678c11.326-10.868,12.562-30.137,2.92-42.784c-9.632-12.643-27.363-13.956-39.467-3.162
				c-12.103,10.868-13.567,29.912-3.088,42.555C413.52,326.939,431.402,328.468,442.74,317.678L442.74,317.678z"/>
			<path d="M431.402,182.998c-11.793-13.947-33.766-15.105-48.802-3.006c-15.109,12.025-16.885,33.765-4.164,48.572
				c12.726,14.798,34.621,16.418,48.724,3.542C441.271,219.156,443.198,196.876,431.402,182.998L431.402,182.998z"/>
			<path d="M102.602,246.135c-15.265,20.202-16.569,57.665-3.936,81.564c12.647,23.973,39.631,25.826,60.058,5.473
				c20.28-20.509,22.897-56.274,5.171-80.096C146.085,229.41,117.862,225.941,102.602,246.135L102.602,246.135z"/>
			<path d="M115.011,490.598c16.419,20.276,53.895,19.892,81.72,1.616c27.68-18.431,31.532-54.347,9.02-80.476
				c-22.509-25.99-59.665-28.915-81.482-4.786C102.679,431.085,98.593,470.245,115.011,490.598L115.011,490.598z"/>
			<path d="M204.67,228.175c12.107,15.036,33.847,16.885,48.572,4.164c14.803-12.647,16.5-34.612,3.546-48.719
				c-12.954-14.111-35.229-15.96-49.03-4.168C193.802,191.17,192.648,213.143,204.67,228.175L204.67,228.175z"/>
			<path d="M192.8,268.493c-11.334,10.79-12.565,30.067-2.933,42.71c9.637,12.647,27.295,13.956,39.402,3.153
				c12.176-10.868,13.563-29.899,3.157-42.464C221.939,259.249,204.134,257.625,192.8,268.493L192.8,268.493z"/>
			<path d="M204.134,403.086c11.715,13.892,33.766,15.127,48.72,3.102c15.113-12.111,16.889-33.938,4.241-48.646
				c-12.716-14.811-34.689-16.5-48.797-3.546C194.183,366.941,192.338,389.229,204.134,403.086L204.134,403.086z"/>
		</g>
		<g class="primary">
			<path d="M520.525,95.499c-16.501-20.275-53.968-19.973-81.72-1.62c-27.753,18.5-31.459,54.274-9.023,80.489
				c22.591,25.977,59.673,28.905,81.413,4.777C532.861,155.012,536.938,115.852,520.525,95.499L520.525,95.499z"/>
			<path d="M118.558,171.975c18.509,27.757,54.355,31.527,80.562,9.019c25.981-22.513,28.837-59.596,4.704-81.404
				c-24.129-21.593-63.211-25.675-83.568-9.339C99.901,106.751,100.29,144.144,118.558,171.975L118.558,171.975z"/>
			<path d="M364.641,508.183c-20.193,15.261-57.665,16.573-81.642,4c-23.904-12.721-25.826-39.704-5.396-60.044
				c20.427-20.362,56.274-22.98,80.096-5.18C381.374,464.69,384.761,492.914,364.641,508.183L364.641,508.183z"/>
			<path d="M270.817,77.927c20.198-15.265,57.665-16.587,81.564-3.939c23.973,12.647,25.83,39.626,5.473,59.984
				c-20.427,20.344-56.352,22.971-80.096,5.162C254.089,121.398,250.62,93.184,270.817,77.927L270.817,77.927z"/>
			<path d="M266.887,336.796c23.662,27.675,66.84,30.768,94.592,7.17c27.757-23.667,30.759-66.835,7.171-94.661
				c-23.667-27.688-66.762-30.69-94.665-7.179C246.301,265.797,243.299,308.974,266.887,336.796L266.887,336.796z"/>
			<path d="M342.361,417.98c-10.872,11.402-30.146,12.568-42.789,2.932c-12.639-9.566-13.956-27.294-3.084-39.393
				c10.794-12.107,29.843-13.576,42.481-3.088C351.608,388.836,353.155,406.732,342.361,417.98L342.361,417.98z"/>
			<path d="M293.18,168.04c10.79-11.252,30.059-12.565,42.702-2.847c12.647,9.559,13.956,27.291,3.162,39.389
				c-10.872,12.107-29.912,13.576-42.556,3.084C283.923,197.26,282.308,179.452,293.18,168.04L293.18,168.04z"/>
		</g>
		<g class="primary">
			<path d="M568.895,113.925l-11.403,75.56c15.39-9.68,26.374-14.854,52.101-14.854h63.617v242.848
				c0,34.988-4.622,48.654-11.516,62.969h162.761c-6.894-14.314-11.524-27.98-11.524-62.969V174.631h63.621
				c25.735,0,36.595,5.175,52.097,14.854l-11.398-75.56H568.895z"/>
			<path d="M975.592,113.925l-12.6,74.381c13.671-6.79,26.914-13.675,51.557-13.675h148.882
				c20.673,0,25.195,3.447,25.195,22.28v44.68c0,18.945-4.522,22.383-25.195,22.383h-66.411c-32.08,0-48.123-5.166-63.103-9.796
				v80.199c14.979-4.518,31.022-9.684,63.103-9.684h66.411c20.673,0,25.195,3.442,25.195,22.28v50.49
				c0,18.841-4.522,22.288-25.195,22.288h-136.935c-29.705,0-48.11-9.697-63.504-17.771l13.131,78.467h278.37
				c54.478,0,73.958-26.262,73.958-64.696v-60.706c0-44.14-10.341-58.995-85.378-61.25v-1.179c62.441,0,85.378-16.047,85.378-46.944
				v-59.639c0-52.632-28.646-72.109-99.676-72.109H975.592z"/>
			<path d="M1511.872,419.751v-45.225c0-12.047,2.264-23.463,16.578-24.116l138.646-6.773
				c60.719-2.907,81.909-17.766,81.909-72.765v-73.31c0-51.565-14.841-83.638-97.395-83.638H1381.3l-12.061,73.841
				c17.227-9.153,36.616-13.136,57.28-13.136h160.398c20.66,0,26.91,6.885,26.91,17.114v20.133c0,14.319-4,19.481-21.753,20.021
				l-148.995,7.965c-48.646,2.902-70.929,14.962-70.929,77.4v163.184h368.263l13.234-76.748c-31,12.052-39.506,16.052-76.221,16.052
				H1511.872z"/>
			<path d="M2021.152,301.756h-142.624l142.624-120.879V301.756 M2158.614,301.756v-187.3h-162.126l-219.376,193.649
				v89.896h244.04v32.063c0,27.571-4.64,39.511-12.587,50.382h163.171c-7.961-10.871-13.122-22.811-13.122-50.382v-32.063h62.424
				v-96.246H2158.614z"/>
		</g>
	</g>
</g>
</svg>
