<svg xmlns="http://www.w3.org/2000/svg" viewBox="0 0 350.76 263.07">
  <defs>
    <style>
      .logo-color-dark {
        fill: #016699;
      }

      .a {
        fill: #fff;
      }

      .logo-color-light {
        fill: #ffcd05;
      }
    </style>
  </defs>
  <title>screenshot</title>
  <g>
    <rect class="logo-color-dark" width="350.76" height="263.07"/>
    <g>
      <path class="a" d="M325.77,142.28V128.74H317V102.37H294.16l-30.89,27.26v12.65h34.36v4.52c0,3.88-.66,5.56-1.77,7.09h23c-1.12-1.53-1.85-3.21-1.85-7.09v-4.52Zm-28.14-13.54H277.55l20.08-17Z"/>
      <path class="a" d="M225.93,145.35V139c0-1.7.32-3.3,2.33-3.4l19.52-1c8.55-.41,11.53-2.5,11.53-10.24V114.07c0-7.26-2.09-11.78-13.71-11.78h-38l-1.7,10.4a16.93,16.93,0,0,1,8.06-1.85h22.58c2.91,0,3.79,1,3.79,2.41v2.83c0,2-.56,2.75-3.06,2.82l-21,1.12c-6.84.41-10,2.11-10,10.9v23H258.1l1.87-10.8c-4.37,1.69-5.56,2.26-10.73,2.26Z"/>
      <path class="a" d="M150.43,102.29l-1.77,10.47a14.33,14.33,0,0,1,7.26-1.92h21c2.91,0,3.54.48,3.54,3.14v6.28c0,2.67-.63,3.16-3.54,3.16h-9.35a25.9,25.9,0,0,1-8.89-1.38v11.29a26.2,26.2,0,0,1,8.89-1.37h9.35c2.91,0,3.54.49,3.54,3.14v7.11c0,2.65-.63,3.14-3.54,3.14H157.6a17.61,17.61,0,0,1-8.94-2.5l1.85,11H189.7c7.66,0,10.41-3.7,10.41-9.11v-8.54c0-6.22-1.46-8.31-12-8.63v-.16c8.79,0,12-2.26,12-6.61v-8.4c0-7.41-4-10.15-14-10.15Z"/>
      <path class="a" d="M93.18,102.29l-1.61,10.64a11.57,11.57,0,0,1,7.33-2.09h9V145c0,4.92-.65,6.85-1.62,8.86h22.91c-1-2-1.62-3.94-1.62-8.86V110.84h9a11.59,11.59,0,0,1,7.33,2.09l-1.6-10.64Z"/>
    </g>
    <g>
      <path class="a" d="M86.37,99.7c2.31,2.86,1.73,8.38-1.32,11.77s-8.28,3-11.46-.67S71,102.07,74.86,99.47s9.18-2.63,11.51.23ZM29.78,110.46c2.6,3.91,7.65,4.44,11.34,1.27s4.06-8.39.66-11.46S32.88,96.66,30,99s-2.82,7.59-.24,11.5ZM64.42,157.8c2.83-2.15,2.36-6.13-1-8.62a8.89,8.89,0,0,0-11.27.73c-2.88,2.86-2.61,6.66.76,8.45s8.65,1.59,11.49-.56ZM51.21,97.22c-2.84,2.15-2.35,6.12,1,8.62a8.9,8.9,0,0,0,11.28-.73c2.86-2.86,2.6-6.66-.78-8.44s-8.63-1.6-11.48.55Zm-.55,36.45a9.45,9.45,0,1,0,1-13.33,9.58,9.58,0,0,0-1,13.33ZM61.28,145.1a3.77,3.77,0,0,0-.47-5.57,4.35,4.35,0,0,0-6,.43,3.73,3.73,0,0,0,.43,5.55,4.64,4.64,0,0,0,6-.41Zm-6.92-35.19a3.79,3.79,0,0,0,.47,5.58,4.37,4.37,0,0,0,6-.43,3.74,3.74,0,0,0-.45-5.55,4.64,4.64,0,0,0-6,.4Z"/>
      <path class="logo-color-light" d="M85.86,144.56c2.58,3.9,2.62,9.18-.23,11.5s-8.38,1.72-11.77-1.32-3-8.29.66-11.47,8.74-2.62,11.34,1.29Zm2.25-10.46c2.14-2.83,2.33-8.1.56-11.47s-5.58-3.65-8.46-.77a9,9,0,0,0-.74,11.28c2.51,3.33,6.48,3.82,8.64,1Zm-14.38,2.54a4.82,4.82,0,1,0-7.32,6.27,5.08,5.08,0,0,0,6.9.6,5,5,0,0,0,.42-6.87ZM75.42,131a4.68,4.68,0,0,0,.41-6,3.75,3.75,0,0,0-5.56-.44,4.37,4.37,0,0,0-.43,6,3.79,3.79,0,0,0,5.58.48Zm-1.6-19a5,5,0,0,0-6.87-.43,4.73,4.73,0,0,0-.59,6.84,4.78,4.78,0,0,0,6.86.5,5.08,5.08,0,0,0,.6-6.91Zm-46.29,8.89c-2.15,2.84-2.33,8.11-.55,11.48s5.58,3.63,8.45.77a8.94,8.94,0,0,0,.73-11.28c-2.51-3.33-6.48-3.82-8.63-1Zm1.75,34.41c2.31,2.86,7.58,2.8,11.5.23s4.44-7.65,1.27-11.33-8.4-4.07-11.47-.67-3.61,8.91-1.3,11.77ZM41.9,118.38a4.83,4.83,0,1,0,7.34-6.28,5.09,5.09,0,0,0-6.91-.58,5,5,0,0,0-.43,6.86Zm-1.67,5.67a4.64,4.64,0,0,0-.41,6,3.73,3.73,0,0,0,5.54.44,4.36,4.36,0,0,0,.45-6,3.78,3.78,0,0,0-5.58-.48Zm1.59,19a5,5,0,0,0,6.86.44,4.83,4.83,0,1,0-6.27-7.35,5.08,5.08,0,0,0-.59,6.91Z"/>
    </g>
  </g>
</svg>
