<svg xmlns="http://www.w3.org/2000/svg" viewBox="0 0 234.2 51.6">
  <defs>
    <style>
      .logo-color-white {
        fill: #fff;
      }
    </style>
  </defs>
  <title>text-light</title>
  <g>
    <path class="logo-color-white" d="M234.2,40V26.44h-8.79V.08H202.58L171.7,27.34V40h34.36v4.52c0,3.88-.66,5.56-1.78,7.09h23c-1.12-1.53-1.85-3.21-1.85-7.09V40ZM206.06,26.44H186l20.08-17Z"/>
    <path class="logo-color-white" d="M134.36,43.06V36.69c0-1.7.32-3.31,2.33-3.4l19.52-.95c8.55-.41,11.53-2.5,11.53-10.24V11.77C167.74,4.52,165.65,0,154,0H116l-1.7,10.4a16.93,16.93,0,0,1,8.06-1.85h22.58c2.91,0,3.79,1,3.79,2.41v2.83c0,2-.56,2.74-3.06,2.82l-21,1.12c-6.84.41-10,2.11-10,10.9v23h51.84l1.87-10.8c-4.37,1.69-5.56,2.26-10.73,2.26Z"/>
    <path class="logo-color-white" d="M58.86,0,57.09,10.47a14.33,14.33,0,0,1,7.26-1.92h21c2.91,0,3.54.48,3.54,3.13V18c0,2.67-.63,3.16-3.54,3.16H76a25.9,25.9,0,0,1-8.89-1.38V31A26.2,26.2,0,0,1,76,29.67h9.35c2.91,0,3.54.49,3.54,3.14v7.11c0,2.65-.63,3.14-3.54,3.14H66a17.5,17.5,0,0,1-8.94-2.51L58.94,51.6H98.13c7.66,0,10.41-3.7,10.41-9.11V34c0-6.22-1.46-8.31-12-8.63v-.16c8.79,0,12-2.26,12-6.61v-8.4c0-7.41-4-10.15-14-10.15Z"/>
    <path class="logo-color-white" d="M1.61,0,0,10.64A11.57,11.57,0,0,1,7.33,8.55h9V42.74c0,4.92-.65,6.84-1.62,8.86H37.58c-1-2-1.62-3.94-1.62-8.86V8.55h9a11.59,11.59,0,0,1,7.33,2.09L50.65,0Z"/>
  </g>
</svg>
